<svg width="18" height="24" viewBox="0 0 18 24" fill="none" xmlns="http://www.w3.org/2000/svg">
<path d="M16.8678 21.7497C17.1528 21.7498 17.4272 21.8581 17.6355 22.0527C17.8439 22.2473 17.9705 22.5138 17.9899 22.7982C18.0094 23.0826 17.9201 23.3638 17.7402 23.5849C17.5603 23.806 17.3032 23.9506 17.0208 23.9895L16.8678 24H1.1248C0.839727 23.9999 0.565316 23.8916 0.357014 23.697C0.148712 23.5024 0.0220488 23.236 0.0026184 22.9515C-0.016812 22.6671 0.0724392 22.386 0.252338 22.1648C0.432236 21.9437 0.689368 21.7991 0.971778 21.7602L1.1248 21.7497H16.8678ZM9.00678 0.00150026C9.27841 0.00187392 9.54074 0.100502 9.74534 0.279178C9.94993 0.457854 10.083 0.704513 10.1199 0.973622L10.1304 1.12664V16.4181L14.58 11.9625C14.7703 11.7717 15.0228 11.6556 15.2915 11.6352C15.5602 11.6148 15.8273 11.6916 16.0442 11.8515L16.1717 11.9595C16.3626 12.1501 16.4787 12.4029 16.4988 12.672C16.5189 12.941 16.4417 13.2083 16.2812 13.4252L16.1732 13.5512L9.80788 19.927L9.70287 20.0215L9.56485 20.11L9.51085 20.1415L9.37433 20.1985L9.19431 20.2435L9.08929 20.2555L8.99928 20.2585C8.92314 20.2584 8.84723 20.2504 8.77275 20.2345L8.65274 20.2C8.51015 20.1541 8.37844 20.0796 8.26569 19.981L1.82989 13.5527C1.62805 13.3522 1.50967 13.0827 1.49858 12.7984C1.48748 12.5141 1.58449 12.2362 1.77008 12.0205C1.95567 11.8049 2.21605 11.6676 2.49882 11.6362C2.78159 11.6048 3.06574 11.6818 3.29407 11.8515L3.42008 11.961L7.88014 16.4121V1.12514C7.88014 0.826735 7.99868 0.540551 8.20969 0.329546C8.42069 0.118541 8.70688 0 9.00528 0L9.00678 0.00150026Z" fill="white"/>
</svg>
