<svg width="459" height="314" viewBox="0 0 459 314" fill="none" xmlns="http://www.w3.org/2000/svg">
<path d="M0 245H17.1352C21.5844 245 25.5125 245.879 28.9195 247.636C32.3265 249.354 34.9719 251.775 36.8558 254.899C38.7397 257.983 39.6816 261.517 39.6816 265.5C39.6816 269.483 38.7397 273.036 36.8558 276.16C34.9719 279.245 32.3265 281.666 28.9195 283.423C25.5125 285.141 21.5844 286 17.1352 286H0V245ZM16.8948 282.251C20.5823 282.251 23.809 281.549 26.5747 280.143C29.3404 278.698 31.4848 276.726 33.0079 274.227C34.531 271.689 35.2926 268.78 35.2926 265.5C35.2926 262.22 34.531 259.33 33.0079 256.831C31.4848 254.293 29.3404 252.321 26.5747 250.916C23.809 249.471 20.5823 248.749 16.8948 248.749H4.44915V282.251H16.8948Z" fill="#242424"/>
<path d="M79.4337 282.251V286H49.6725V245H78.5319V248.749H54.1216V263.333H75.8864V267.023H54.1216V282.251H79.4337Z" fill="#242424"/>
<path d="M89.8919 245H94.3411V282.251H117.91V286H89.8919V245Z" fill="#242424"/>
<path d="M125.297 245H129.746V286H125.297V245Z" fill="#242424"/>
<path d="M177.962 245L159.324 286H154.934L136.296 245H141.106L157.219 280.611L173.453 245H177.962Z" fill="#242424"/>
<path d="M213.831 282.251V286H184.07V245H212.929V248.749H188.519V263.333H210.284V267.023H188.519V282.251H213.831Z" fill="#242424"/>
<path d="M253.029 286L243.409 272.821C242.327 272.939 241.204 272.997 240.042 272.997H228.739V286H224.289V245H240.042C245.413 245 249.622 246.25 252.668 248.749C255.714 251.248 257.237 254.684 257.237 259.057C257.237 262.259 256.396 264.973 254.712 267.199C253.069 269.385 250.704 270.967 247.617 271.943L257.899 286H253.029ZM239.922 269.307C244.09 269.307 247.277 268.409 249.481 266.613C251.686 264.817 252.788 262.298 252.788 259.057C252.788 255.738 251.686 253.2 249.481 251.443C247.277 249.647 244.09 248.749 239.922 248.749H228.739V269.307H239.922Z" fill="#242424"/>
<path d="M281.581 271.826V286H277.192V271.826L260.357 245H265.107L279.537 268.019L293.966 245H298.415L281.581 271.826Z" fill="#242424"/>
<path d="M313.199 248.749H298.408V245H332.438V248.749H317.648V286H313.199V248.749Z" fill="#242424"/>
<path d="M369.307 282.251V286H339.546V245H368.405V248.749H343.995V263.333H365.76V267.023H343.995V282.251H369.307Z" fill="#242424"/>
<path d="M392.812 266.73L384.215 275.223V286H379.766V245H384.215V269.776L408.926 245H414.036L395.819 263.567L415.299 286H410.008L392.812 266.73Z" fill="#242424"/>
<path d="M447.26 275.047H423.812L418.761 286H414.132L433.371 245H437.76L457 286H452.31L447.26 275.047ZM445.637 271.533L435.536 249.51L425.435 271.533H445.637Z" fill="#242424"/>
<path d="M319.853 123.741H299.552V194.843C299.552 197.537 298.483 200.12 296.579 202.025C294.676 203.93 292.094 205 289.402 205H167.6C164.908 205 162.327 203.93 160.423 202.025C158.52 200.12 157.45 197.537 157.45 194.843V123.741H137.15C135.188 123.743 133.269 123.175 131.623 122.105C129.978 121.036 128.679 119.512 127.883 117.718C127.081 115.925 126.818 113.937 127.124 111.997C127.43 110.056 128.294 108.247 129.608 106.788L220.96 5.21481C224.807 0.928398 232.196 0.928398 236.043 5.21481L327.394 106.788C328.707 108.248 329.568 110.056 329.875 111.995C330.182 113.935 329.921 115.921 329.123 117.715C328.325 119.508 327.025 121.032 325.379 122.102C323.734 123.171 321.814 123.741 319.853 123.741ZM262.474 99.7799C258.249 95.6059 252.551 93.2654 246.614 93.2654C240.677 93.2654 234.979 95.6059 230.755 99.7799L228.481 102.014L226.217 99.7799C221.991 95.6052 216.291 93.2645 210.353 93.2645C204.414 93.2645 198.715 95.6052 194.488 99.7799C192.391 101.798 190.723 104.22 189.584 106.899C188.444 109.578 187.857 112.46 187.857 115.371C187.857 118.283 188.444 121.165 189.584 123.844C190.723 126.523 192.391 128.944 194.488 130.963L228.481 164.371L262.474 130.963C264.571 128.944 266.239 126.523 267.378 123.844C268.517 121.165 269.105 118.283 269.105 115.371C269.105 112.46 268.517 109.578 267.378 106.899C266.239 104.22 264.571 101.798 262.474 99.7799Z" stroke="#242424" stroke-width="3"/>
<path d="M261.673 298.8V310H260.105V300.192H253.609V310H252.025V298.8H261.673ZM267.934 301.44C269.107 301.44 270.003 301.728 270.622 302.304C271.251 302.88 271.566 303.739 271.566 304.88V310H270.11V308.88C269.854 309.275 269.486 309.579 269.006 309.792C268.537 309.995 267.977 310.096 267.326 310.096C266.377 310.096 265.614 309.867 265.038 309.408C264.473 308.949 264.19 308.347 264.19 307.6C264.19 306.853 264.462 306.256 265.006 305.808C265.55 305.349 266.414 305.12 267.598 305.12H270.03V304.816C270.03 304.155 269.838 303.648 269.454 303.296C269.07 302.944 268.505 302.768 267.758 302.768C267.257 302.768 266.766 302.853 266.286 303.024C265.806 303.184 265.401 303.403 265.07 303.68L264.43 302.528C264.867 302.176 265.39 301.909 265.998 301.728C266.606 301.536 267.251 301.44 267.934 301.44ZM267.582 308.912C268.169 308.912 268.675 308.784 269.102 308.528C269.529 308.261 269.838 307.888 270.03 307.408V306.224H267.662C266.361 306.224 265.71 306.661 265.71 307.536C265.71 307.963 265.875 308.299 266.206 308.544C266.537 308.789 266.995 308.912 267.582 308.912ZM274.332 301.52H275.868V305.12H280.7V301.52H282.236V310H280.7V306.448H275.868V310H274.332V301.52ZM292.886 305.808C292.886 305.925 292.876 306.08 292.854 306.272H285.974C286.07 307.019 286.396 307.621 286.95 308.08C287.516 308.528 288.214 308.752 289.046 308.752C290.06 308.752 290.876 308.411 291.494 307.728L292.342 308.72C291.958 309.168 291.478 309.509 290.902 309.744C290.337 309.979 289.702 310.096 288.998 310.096C288.102 310.096 287.308 309.915 286.614 309.552C285.921 309.179 285.382 308.661 284.998 308C284.625 307.339 284.438 306.592 284.438 305.76C284.438 304.939 284.62 304.197 284.982 303.536C285.356 302.875 285.862 302.363 286.502 302C287.153 301.627 287.884 301.44 288.694 301.44C289.505 301.44 290.225 301.627 290.854 302C291.494 302.363 291.99 302.875 292.342 303.536C292.705 304.197 292.886 304.955 292.886 305.808ZM288.694 302.736C287.958 302.736 287.34 302.96 286.838 303.408C286.348 303.856 286.06 304.443 285.974 305.168H291.414C291.329 304.453 291.036 303.872 290.534 303.424C290.044 302.965 289.43 302.736 288.694 302.736ZM302.409 301.52V310H300.873V302.864H297.225L297.129 304.752C297.075 305.893 296.974 306.848 296.825 307.616C296.675 308.373 296.43 308.981 296.089 309.44C295.747 309.899 295.273 310.128 294.665 310.128C294.387 310.128 294.073 310.08 293.721 309.984L293.817 308.688C293.955 308.72 294.083 308.736 294.201 308.736C294.627 308.736 294.947 308.549 295.161 308.176C295.374 307.803 295.513 307.36 295.577 306.848C295.641 306.336 295.699 305.605 295.753 304.656L295.897 301.52H302.409ZM309.299 304.4C310.376 304.411 311.197 304.656 311.763 305.136C312.328 305.616 312.611 306.293 312.611 307.168C312.611 308.085 312.301 308.795 311.683 309.296C311.075 309.787 310.2 310.027 309.059 310.016L305.379 310V301.52H306.915V304.384L309.299 304.4ZM308.931 308.848C309.624 308.859 310.147 308.72 310.499 308.432C310.861 308.144 311.043 307.717 311.043 307.152C311.043 306.597 310.867 306.192 310.515 305.936C310.173 305.68 309.645 305.547 308.931 305.536L306.915 305.504V308.832L308.931 308.848ZM321.903 301.44C323.076 301.44 323.972 301.728 324.591 302.304C325.22 302.88 325.535 303.739 325.535 304.88V310H324.079V308.88C323.823 309.275 323.455 309.579 322.975 309.792C322.505 309.995 321.945 310.096 321.295 310.096C320.345 310.096 319.583 309.867 319.007 309.408C318.441 308.949 318.159 308.347 318.159 307.6C318.159 306.853 318.431 306.256 318.975 305.808C319.519 305.349 320.383 305.12 321.567 305.12H323.999V304.816C323.999 304.155 323.807 303.648 323.423 303.296C323.039 302.944 322.473 302.768 321.727 302.768C321.225 302.768 320.735 302.853 320.255 303.024C319.775 303.184 319.369 303.403 319.039 303.68L318.399 302.528C318.836 302.176 319.359 301.909 319.967 301.728C320.575 301.536 321.22 301.44 321.903 301.44ZM321.551 308.912C322.137 308.912 322.644 308.784 323.071 308.528C323.497 308.261 323.807 307.888 323.999 307.408V306.224H321.631C320.329 306.224 319.679 306.661 319.679 307.536C319.679 307.963 319.844 308.299 320.175 308.544C320.505 308.789 320.964 308.912 321.551 308.912ZM336.925 308.656V311.968H335.485V310H328.397V311.968H326.941V308.656H327.389C327.933 308.624 328.306 308.24 328.509 307.504C328.711 306.768 328.85 305.728 328.924 304.384L329.053 301.52H335.628V308.656H336.925ZM330.333 304.496C330.29 305.563 330.199 306.448 330.061 307.152C329.933 307.845 329.693 308.347 329.341 308.656H334.093V302.864H330.413L330.333 304.496ZM348.702 301.52V310H347.31V303.808L344.142 309.04H343.47L340.334 303.792V310H338.926V301.52H340.51L343.838 307.248L347.262 301.52H348.702ZM351.691 301.52H353.227V307.696L358.427 301.52H359.819V310H358.283V303.824L353.099 310H351.691V301.52ZM362.801 301.52H364.337V305.12H369.169V301.52H370.705V310H369.169V306.448H364.337V310H362.801V301.52ZM373.691 301.52H375.227V307.696L380.427 301.52H381.819V310H380.283V303.824L375.099 310H373.691V301.52ZM388.497 310.096C387.633 310.096 386.859 309.909 386.177 309.536C385.505 309.163 384.977 308.651 384.593 308C384.209 307.339 384.017 306.592 384.017 305.76C384.017 304.928 384.209 304.187 384.593 303.536C384.977 302.875 385.505 302.363 386.177 302C386.859 301.627 387.633 301.44 388.497 301.44C389.265 301.44 389.947 301.595 390.545 301.904C391.153 302.213 391.622 302.661 391.953 303.248L390.785 304C390.518 303.595 390.187 303.291 389.793 303.088C389.398 302.885 388.961 302.784 388.481 302.784C387.926 302.784 387.425 302.907 386.977 303.152C386.539 303.397 386.193 303.749 385.937 304.208C385.691 304.656 385.569 305.173 385.569 305.76C385.569 306.357 385.691 306.885 385.937 307.344C386.193 307.792 386.539 308.139 386.977 308.384C387.425 308.629 387.926 308.752 388.481 308.752C388.961 308.752 389.398 308.651 389.793 308.448C390.187 308.245 390.518 307.941 390.785 307.536L391.953 308.272C391.622 308.859 391.153 309.312 390.545 309.632C389.947 309.941 389.265 310.096 388.497 310.096ZM400.152 302.864H397.048V310H395.512V302.864H392.408V301.52H400.152V302.864ZM406.218 301.44C407.04 301.44 407.776 301.621 408.426 301.984C409.077 302.347 409.584 302.853 409.946 303.504C410.32 304.155 410.506 304.907 410.506 305.76C410.506 306.613 410.32 307.371 409.946 308.032C409.584 308.683 409.077 309.189 408.426 309.552C407.776 309.915 407.04 310.096 406.218 310.096C405.61 310.096 405.05 309.979 404.538 309.744C404.037 309.509 403.61 309.168 403.258 308.72V313.104H401.722V301.52H403.194V302.864C403.536 302.395 403.968 302.043 404.49 301.808C405.013 301.563 405.589 301.44 406.218 301.44ZM406.09 308.752C406.634 308.752 407.12 308.629 407.546 308.384C407.984 308.128 408.325 307.776 408.57 307.328C408.826 306.869 408.954 306.347 408.954 305.76C408.954 305.173 408.826 304.656 408.57 304.208C408.325 303.749 407.984 303.397 407.546 303.152C407.12 302.907 406.634 302.784 406.09 302.784C405.557 302.784 405.072 302.912 404.634 303.168C404.208 303.413 403.866 303.76 403.61 304.208C403.365 304.656 403.242 305.173 403.242 305.76C403.242 306.347 403.365 306.869 403.61 307.328C403.856 307.776 404.197 308.128 404.634 308.384C405.072 308.629 405.557 308.752 406.09 308.752ZM415.684 301.44C416.857 301.44 417.753 301.728 418.372 302.304C419.001 302.88 419.316 303.739 419.316 304.88V310H417.86V308.88C417.604 309.275 417.236 309.579 416.756 309.792C416.287 309.995 415.727 310.096 415.076 310.096C414.127 310.096 413.364 309.867 412.788 309.408C412.223 308.949 411.94 308.347 411.94 307.6C411.94 306.853 412.212 306.256 412.756 305.808C413.3 305.349 414.164 305.12 415.348 305.12H417.78V304.816C417.78 304.155 417.588 303.648 417.204 303.296C416.82 302.944 416.255 302.768 415.508 302.768C415.007 302.768 414.516 302.853 414.036 303.024C413.556 303.184 413.151 303.403 412.82 303.68L412.18 302.528C412.617 302.176 413.14 301.909 413.748 301.728C414.356 301.536 415.001 301.44 415.684 301.44ZM415.332 308.912C415.919 308.912 416.425 308.784 416.852 308.528C417.279 308.261 417.588 307.888 417.78 307.408V306.224H415.412C414.111 306.224 413.46 306.661 413.46 307.536C413.46 307.963 413.625 308.299 413.956 308.544C414.287 308.789 414.745 308.912 415.332 308.912ZM428.402 302.864H425.298V310H423.762V302.864H420.658V301.52H428.402V302.864ZM433.229 310.096C432.387 310.096 431.629 309.909 430.957 309.536C430.285 309.163 429.757 308.651 429.373 308C429 307.339 428.813 306.592 428.813 305.76C428.813 304.928 429 304.187 429.373 303.536C429.757 302.875 430.285 302.363 430.957 302C431.629 301.627 432.387 301.44 433.229 301.44C434.072 301.44 434.824 301.627 435.485 302C436.157 302.363 436.68 302.875 437.053 303.536C437.437 304.187 437.629 304.928 437.629 305.76C437.629 306.592 437.437 307.339 437.053 308C436.68 308.651 436.157 309.163 435.485 309.536C434.824 309.909 434.072 310.096 433.229 310.096ZM433.229 308.752C433.773 308.752 434.259 308.629 434.685 308.384C435.123 308.128 435.464 307.776 435.709 307.328C435.955 306.869 436.077 306.347 436.077 305.76C436.077 305.173 435.955 304.656 435.709 304.208C435.464 303.749 435.123 303.397 434.685 303.152C434.259 302.907 433.773 302.784 433.229 302.784C432.685 302.784 432.195 302.907 431.757 303.152C431.331 303.397 430.989 303.749 430.733 304.208C430.488 304.656 430.365 305.173 430.365 305.76C430.365 306.347 430.488 306.869 430.733 307.328C430.989 307.776 431.331 308.128 431.757 308.384C432.195 308.629 432.685 308.752 433.229 308.752ZM444.343 301.44C445.165 301.44 445.901 301.621 446.551 301.984C447.202 302.347 447.709 302.853 448.071 303.504C448.445 304.155 448.631 304.907 448.631 305.76C448.631 306.613 448.445 307.371 448.071 308.032C447.709 308.683 447.202 309.189 446.551 309.552C445.901 309.915 445.165 310.096 444.343 310.096C443.735 310.096 443.175 309.979 442.663 309.744C442.162 309.509 441.735 309.168 441.383 308.72V313.104H439.847V301.52H441.319V302.864C441.661 302.395 442.093 302.043 442.615 301.808C443.138 301.563 443.714 301.44 444.343 301.44ZM444.215 308.752C444.759 308.752 445.245 308.629 445.671 308.384C446.109 308.128 446.45 307.776 446.695 307.328C446.951 306.869 447.079 306.347 447.079 305.76C447.079 305.173 446.951 304.656 446.695 304.208C446.45 303.749 446.109 303.397 445.671 303.152C445.245 302.907 444.759 302.784 444.215 302.784C443.682 302.784 443.197 302.912 442.759 303.168C442.333 303.413 441.991 303.76 441.735 304.208C441.49 304.656 441.367 305.173 441.367 305.76C441.367 306.347 441.49 306.869 441.735 307.328C441.981 307.776 442.322 308.128 442.759 308.384C443.197 308.629 443.682 308.752 444.215 308.752ZM453.809 301.44C454.982 301.44 455.878 301.728 456.497 302.304C457.126 302.88 457.441 303.739 457.441 304.88V310H455.985V308.88C455.729 309.275 455.361 309.579 454.881 309.792C454.412 309.995 453.852 310.096 453.201 310.096C452.252 310.096 451.489 309.867 450.913 309.408C450.348 308.949 450.065 308.347 450.065 307.6C450.065 306.853 450.337 306.256 450.881 305.808C451.425 305.349 452.289 305.12 453.473 305.12H455.905V304.816C455.905 304.155 455.713 303.648 455.329 303.296C454.945 302.944 454.38 302.768 453.633 302.768C453.132 302.768 452.641 302.853 452.161 303.024C451.681 303.184 451.276 303.403 450.945 303.68L450.305 302.528C450.742 302.176 451.265 301.909 451.873 301.728C452.481 301.536 453.126 301.44 453.809 301.44ZM453.457 308.912C454.044 308.912 454.55 308.784 454.977 308.528C455.404 308.261 455.713 307.888 455.905 307.408V306.224H453.537C452.236 306.224 451.585 306.661 451.585 307.536C451.585 307.963 451.75 308.299 452.081 308.544C452.412 308.789 452.87 308.912 453.457 308.912Z" fill="#242424"/>
</svg>
