<svg width="231" height="35" viewBox="0 0 231 35" fill="none" xmlns="http://www.w3.org/2000/svg">
<path d="M42 11H49.0866C50.9266 11 52.5511 11.3643 53.9601 12.0929C55.3692 12.8052 56.4632 13.809 57.2423 15.1043C58.0214 16.3833 58.411 17.8486 58.411 19.5C58.411 21.1514 58.0214 22.6248 57.2423 23.92C56.4632 25.199 55.3692 26.2029 53.9601 26.9314C52.5511 27.6438 50.9266 28 49.0866 28H42V11ZM48.9871 26.4457C50.5122 26.4457 51.8466 26.1543 52.9904 25.5714C54.1342 24.9724 55.0211 24.1548 55.651 23.1186C56.2809 22.0662 56.5958 20.86 56.5958 19.5C56.5958 18.14 56.2809 16.9419 55.651 15.9057C55.0211 14.8533 54.1342 14.0357 52.9904 13.4529C51.8466 12.8538 50.5122 12.5543 48.9871 12.5543H43.84V26.4457H48.9871Z" fill="#242424"/>
<path d="M74.8511 26.4457V28H62.5429V11H74.4782V12.5543H64.3829V18.6014H73.3841V20.1314H64.3829V26.4457H74.8511Z" fill="#242424"/>
<path d="M79.1763 11H81.0163V26.4457H90.7635V28H79.1763V11Z" fill="#242424"/>
<path d="M93.8186 11H95.6586V28H93.8186V11Z" fill="#242424"/>
<path d="M115.599 11L107.891 28H106.076L98.3675 11H100.357L107.021 25.7657L113.734 11H115.599Z" fill="#242424"/>
<path d="M130.433 26.4457V28H118.125V11H130.061V12.5543H119.965V18.6014H128.966V20.1314H119.965V26.4457H130.433Z" fill="#242424"/>
<path d="M146.644 28L142.666 22.5357C142.218 22.5843 141.754 22.6086 141.273 22.6086H136.599V28H134.759V11H141.273C143.495 11 145.235 11.5181 146.495 12.5543C147.755 13.5905 148.385 15.0152 148.385 16.8286C148.385 18.1562 148.037 19.2814 147.34 20.2043C146.661 21.111 145.683 21.7667 144.406 22.1714L148.658 28H146.644ZM141.224 21.0786C142.948 21.0786 144.265 20.7062 145.177 19.9614C146.089 19.2167 146.545 18.1724 146.545 16.8286C146.545 15.4524 146.089 14.4 145.177 13.6714C144.265 12.9267 142.948 12.5543 141.224 12.5543H136.599V21.0786H141.224Z" fill="#242424"/>
<path d="M158.452 22.1229V28H156.637V22.1229L149.675 11H151.639L157.607 20.5443L163.575 11H165.415L158.452 22.1229Z" fill="#242424"/>
<path d="M171.529 12.5543H165.412V11H179.485V12.5543H173.369V28H171.529V12.5543Z" fill="#242424"/>
<path d="M194.733 26.4457V28H182.425V11H194.36V12.5543H184.265V18.6014H193.266V20.1314H184.265V26.4457H194.733Z" fill="#242424"/>
<path d="M204.454 20.01L200.898 23.5314V28H199.058V11H200.898V21.2729L211.118 11H213.232L205.697 18.6986L213.754 28H211.566L204.454 20.01Z" fill="#242424"/>
<path d="M226.972 23.4586H217.274L215.186 28H213.271L221.228 11H223.043L231 28H229.061L226.972 23.4586ZM226.3 22.0014L222.123 12.87L217.946 22.0014H226.3Z" fill="#242424"/>
<path d="M32.3504 20.7904H29.0504V32.3488C29.0504 32.7867 28.8765 33.2067 28.5671 33.5164C28.2576 33.826 27.838 34 27.4003 34H7.60007C7.16245 34 6.74276 33.826 6.43332 33.5164C6.12388 33.2067 5.95004 32.7867 5.95004 32.3488V20.7904H2.65C2.33112 20.7907 2.01902 20.6983 1.7516 20.5245C1.48417 20.3507 1.27293 20.1029 1.14353 19.8113C1.01323 19.5198 0.97038 19.1967 1.02018 18.8812C1.06998 18.5658 1.21028 18.2717 1.42403 18.0346L16.2742 1.5226C16.8996 0.825799 18.1008 0.825799 18.7262 1.5226L33.5764 18.0346C33.7897 18.2718 33.9298 18.5658 33.9797 18.881C34.0296 19.1963 33.9871 19.5192 33.8574 19.8108C33.7277 20.1023 33.5163 20.35 33.2489 20.5239C32.9814 20.6978 32.6693 20.7903 32.3504 20.7904ZM23.0228 16.8952C22.336 16.2167 21.4098 15.8362 20.4447 15.8362C19.4796 15.8362 18.5533 16.2167 17.8665 16.8952L17.4969 17.2585L17.1289 16.8952C16.4419 16.2166 15.5153 15.8361 14.55 15.8361C13.5846 15.8361 12.6581 16.2166 11.971 16.8952C11.6301 17.2234 11.359 17.617 11.1737 18.0525C10.9885 18.4881 10.893 18.9565 10.893 19.4298C10.893 19.9032 10.9885 20.3716 11.1737 20.8071C11.359 21.2426 11.6301 21.6363 11.971 21.9644L17.4969 27.3952L23.0228 21.9644C23.3637 21.6363 23.6349 21.2426 23.8201 20.8071C24.0053 20.3716 24.1008 19.9032 24.1008 19.4298C24.1008 18.9565 24.0053 18.4881 23.8201 18.0525C23.6349 17.617 23.3637 17.2234 23.0228 16.8952Z" stroke="#242424" stroke-width="1.4"/>
</svg>
