<svg width="161" height="161" viewBox="0 0 161 161" fill="none" xmlns="http://www.w3.org/2000/svg">
<circle cx="80.5" cy="80.5" r="80.5" fill="white"/>
<path d="M134.051 88.7658H122.151V130.096C122.151 131.662 121.524 133.163 120.409 134.271C119.293 135.378 117.779 136 116.201 136H44.8002C43.2222 136 41.7088 135.378 40.5929 134.271C39.477 133.163 38.8502 131.662 38.8502 130.096V88.7658H26.95C25.8001 88.7668 24.6746 88.4364 23.7103 87.8149C22.746 87.1934 21.9842 86.3074 21.5176 85.2645C21.0477 84.2222 20.8932 83.0669 21.0728 81.939C21.2523 80.8111 21.7583 79.7593 22.5291 78.9115L76.0798 19.8687C78.3349 17.3771 82.6666 17.3771 84.9217 19.8687L138.472 78.9115C139.242 79.7597 139.747 80.811 139.927 81.9382C140.107 83.0654 139.953 84.2202 139.486 85.2627C139.018 86.3053 138.256 87.191 137.291 87.8127C136.327 88.4344 135.202 88.7655 134.051 88.7658ZM100.416 74.8376C97.939 72.4113 94.5989 71.0508 91.1187 71.0508C87.6384 71.0508 84.2983 72.4113 81.8217 74.8376L80.4888 76.1365L79.162 74.8376C76.6843 72.4109 73.3432 71.0503 69.862 71.0503C66.3808 71.0503 63.0396 72.4109 60.562 74.8376C59.3329 76.0109 58.355 77.4185 57.6871 78.9758C57.0192 80.5331 56.6749 82.2081 56.6749 83.9006C56.6749 85.5931 57.0192 87.2682 57.6871 88.8255C58.355 90.3828 59.3329 91.7903 60.562 92.9637L80.4888 112.383L100.416 92.9637C101.645 91.7903 102.623 90.3828 103.291 88.8255C103.959 87.2682 104.303 85.5931 104.303 83.9006C104.303 82.2081 103.959 80.5331 103.291 78.9758C102.623 77.4185 101.645 76.0109 100.416 74.8376Z" stroke="#242424" stroke-width="4"/>
</svg>
