<svg width="102" height="130" viewBox="0 0 102 130" fill="none" xmlns="http://www.w3.org/2000/svg">
<path d="M66.9182 52.0365C78.1016 53.8624 86.6715 58.0618 92.6279 64.6348C98.5843 71.0861 101.563 79.1199 101.563 88.736C101.563 96.1611 99.6176 103.038 95.7277 109.368C91.8378 115.576 85.8814 120.566 77.8585 124.34C69.9572 128.113 60.2325 130 48.6844 130C39.689 130 30.8152 128.844 22.0629 126.531C13.4323 124.096 6.07795 120.688 0 116.306L11.4873 93.6657C16.3497 97.3174 21.9414 100.178 28.2625 102.247C34.7051 104.195 41.2693 105.169 47.955 105.169C55.3701 105.169 61.2049 103.769 65.4595 100.969C69.7141 98.0478 71.8413 93.9701 71.8413 88.736C71.8413 78.2678 63.8792 73.0337 47.955 73.0337H34.462V53.4972L60.7187 23.736H6.38184V0H95.7277V19.1714L66.9182 52.0365Z" fill="#F44336" fill-opacity="0.05"/>
</svg>
