<svg width="101" height="129" viewBox="0 0 101 129" fill="none" xmlns="http://www.w3.org/2000/svg">
<path d="M101 105.084V129H5.76114V109.976L54.3708 63.7753C59.5318 58.823 63.0125 54.5955 64.8128 51.0927C66.6132 47.4691 67.5134 43.9059 67.5134 40.4031C67.5134 35.3301 65.773 31.4649 62.2923 28.8076C58.9317 26.0295 53.9507 24.6404 47.3494 24.6404C41.8283 24.6404 36.8473 25.7275 32.4064 27.9017C27.9655 29.9551 24.2448 33.0955 21.2442 37.323L0 23.5534C4.92097 16.1854 11.7023 10.448 20.344 6.34128C28.9857 2.11376 38.8877 0 50.0499 0C59.4118 0 67.5734 1.57022 74.5347 4.71066C81.6162 7.73033 87.0772 12.0786 90.918 17.7556C94.8788 23.3118 96.8592 29.8947 96.8592 37.5042C96.8592 44.389 95.4189 50.8511 92.5383 56.8904C89.6577 62.9298 84.0766 69.8146 75.795 77.5449L46.8093 105.084H101Z" fill="#F44336" fill-opacity="0.05"/>
</svg>
